<mxfile host="app.diagrams.net" modified="2024-03-22T11:44:03.934Z" agent="Mozilla/5.0 (Windows NT 10.0; Win64; x64) AppleWebKit/537.36 (KHTML, like Gecko) Chrome/121.0.0.0 Safari/537.36" version="24.0.7" etag="5IIesFr-Wy9gk6adLh5m" type="github">
  <diagram name="Page-1" id="faQeCK7w4snYmOGw0nrd">
    <mxGraphModel>
      <root>
        <mxCell id="0" />
        <mxCell id="1" parent="0" />
      </root>
    </mxGraphModel>
  </diagram>
</mxfile>
